<?xml version="1.0" encoding="UTF-8" standalone="no"?>
<!-- Created with Inkscape (http://www.inkscape.org/) -->

<svg
   xmlns:dc="http://purl.org/dc/elements/1.1/"
   xmlns:cc="http://creativecommons.org/ns#"
   xmlns:rdf="http://www.w3.org/1999/02/22-rdf-syntax-ns#"
   xmlns:svg="http://www.w3.org/2000/svg"
   xmlns="http://www.w3.org/2000/svg"
   xmlns:sodipodi="http://sodipodi.sourceforge.net/DTD/sodipodi-0.dtd"
   xmlns:inkscape="http://www.inkscape.org/namespaces/inkscape"
   width="327.6861mm"
   height="150mm"
   viewBox="0 0 327.6861 150"
   version="1.1"
   id="svg10479"
   inkscape:version="0.92.1 r15371"
   sodipodi:docname="LogoV1.1b.svg"
   inkscape:export-filename="C:\Users\isaac\OneDrive\Personal\Ten Capsule\Logo.1.1.png"
   inkscape:export-xdpi="96"
   inkscape:export-ydpi="96">
  <defs
     id="defs10473" />
  <sodipodi:namedview
     id="base"
     pagecolor="#fff9e9"
     bordercolor="#666666"
     borderopacity="1.0"
     inkscape:pageopacity="1"
     inkscape:pageshadow="2"
     inkscape:zoom="1.4142136"
     inkscape:cx="471.13958"
     inkscape:cy="262.29214"
     inkscape:document-units="mm"
     inkscape:current-layer="layer1"
     showgrid="false"
     inkscape:snap-page="false"
     inkscape:measure-start="383.001,355.31"
     inkscape:measure-end="432.009,528.871"
     fit-margin-top="0"
     fit-margin-left="0"
     fit-margin-right="0"
     fit-margin-bottom="0"
     inkscape:window-width="1920"
     inkscape:window-height="1017"
     inkscape:window-x="-8"
     inkscape:window-y="-8"
     inkscape:window-maximized="1"
     inkscape:pagecheckerboard="false"
     inkscape:snap-global="true"
     inkscape:snap-grids="false"
     showguides="false"
     inkscape:guide-bbox="true">
    <inkscape:grid
       type="xygrid"
       id="grid3699" />
    <sodipodi:guide
       position="42.515845,91.440999"
       orientation="-0.043619387,0.99904822"
       id="guide4505"
       inkscape:locked="false"
       inkscape:label=""
       inkscape:color="rgb(0,0,255)" />
  </sodipodi:namedview>
  <metadata
     id="metadata10476">
    <rdf:RDF>
      <cc:Work
         rdf:about="">
        <dc:format>image/svg+xml</dc:format>
        <dc:type
           rdf:resource="http://purl.org/dc/dcmitype/StillImage" />
        <dc:title />
      </cc:Work>
    </rdf:RDF>
  </metadata>
  <g
     inkscape:label="Layer 1"
     inkscape:groupmode="layer"
     id="layer1"
     transform="translate(-1.0654897,-144.15553)">
    <g
       style="display:inline"
       id="g10414"
       transform="matrix(3.0975028,0,0,3.0975028,-111.09305,-618.8699)">
      <g
         transform="translate(11.2925,173.1598)"
         id="g10209"
         style="display:inline">
        <path
           style="fill:#b97a56;fill-opacity:1;stroke:none;stroke-width:0.28748459px;stroke-linecap:butt;stroke-linejoin:miter;stroke-opacity:1"
           d="m 55.719481,76.323783 6.098855,0.102984 -4.186239,14.825237 10.489831,-0.550866 1.208911,1.320458 -1.285913,4.548426 -12.059848,0.526544 -5.9209,21.040654 -6.098855,-0.103 5.81554,-20.666772 -11.332339,0.5876 -1.136507,-1.136507 1.330671,-4.737492 12.806126,-0.651896 z"
           id="path6226-2"
           inkscape:connector-curvature="0"
           sodipodi:nodetypes="ccccccccccccccc" />
        <path
           style="fill:#000000;stroke-width:0.35277781"
           d="m 41.778968,121.04036 c -5.086421,-0.95697 -8.860439,-2.89255 -11.830389,-6.06743 -3.79678,-4.05877 -5.146708,-7.89927 -4.811654,-13.68901 0.247735,-4.280845 0.906192,-6.848506 2.731228,-10.650445 7.718367,-16.079005 30.042281,-22.312476 46.883516,-13.091209 2.598445,1.422755 2.647738,1.434124 3.671224,0.846724 0.57058,-0.327467 1.160459,-0.469446 1.310845,-0.315508 0.340332,0.348368 -6.304481,8.659192 -6.718678,8.403206 -0.165484,-0.102275 -0.219886,-0.789793 -0.120897,-1.527817 0.162567,-1.212024 0.05,-1.45599 -1.163397,-2.521363 -1.626038,-1.427682 -4.859402,-2.978075 -7.726797,-3.70499 -3.063103,-0.776529 -9.291058,-0.93873 -12.808261,-0.333578 -9.096214,1.565049 -16.465168,7.699523 -19.242854,16.019204 -2.383317,7.138476 -1.211826,13.107316 3.451404,17.585176 3.775865,3.62578 6.884575,4.71482 13.59528,4.76273 3.585125,0.0256 4.940833,-0.11733 7.169761,-0.75586 3.084069,-0.8835 6.873982,-2.69301 9.774948,-4.66708 2.61965,-1.78265 3.257391,-2.55204 3.115775,-3.75897 -0.226557,-1.93087 0.900085,-1.03121 3.140026,2.50739 2.279132,3.60051 2.473805,4.71633 0.652819,3.74177 -0.802206,-0.42933 -1.150789,-0.29369 -4.681432,1.82169 -5.536502,3.31719 -9.418973,4.74569 -15.103578,5.55717 -3.328578,0.47515 -8.280671,0.40418 -11.288889,-0.1618 z"
           id="path61"
           inkscape:connector-curvature="0" />
      </g>
      <text
         id="text10379"
         y="271.91611"
         x="82.639328"
         style="font-style:normal;font-weight:normal;font-size:10.58333302px;line-height:1.25;font-family:sans-serif;letter-spacing:0px;word-spacing:0px;fill:#b97a56;fill-opacity:1;stroke:none;stroke-width:0.26458332"
         xml:space="preserve"><tspan
           style="font-style:normal;font-variant:normal;font-weight:normal;font-stretch:normal;font-size:22.57777786px;font-family:'Baskerville Old Face';-inkscape-font-specification:'Baskerville Old Face, Normal';font-variant-ligatures:normal;font-variant-caps:normal;font-variant-numeric:normal;font-feature-settings:normal;text-align:start;writing-mode:lr-tb;text-anchor:start;fill:#b97a56;fill-opacity:1;stroke-width:0.26458332"
           y="271.91611"
           x="82.639328"
           id="tspan10377"
           sodipodi:role="line">en</tspan></text>
      <flowRoot
         transform="matrix(0.51396968,0,0,0.51396968,-127.03268,-250.63929)"
         style="font-style:normal;font-weight:normal;font-size:40px;line-height:1.25;font-family:sans-serif;letter-spacing:0px;word-spacing:0px;fill:#000000;fill-opacity:1;stroke:none"
         id="flowRoot10397"
         xml:space="preserve"><flowRegion
           id="flowRegion10399"><rect
             y="1013.4288"
             x="419.48053"
             height="109.09091"
             width="355.19479"
             id="rect10401" /></flowRegion><flowPara
           style="font-style:normal;font-variant:normal;font-weight:normal;font-stretch:normal;font-size:38.43719864px;font-family:Candara;-inkscape-font-specification:'Candara, Normal';font-variant-ligatures:normal;font-variant-caps:normal;font-variant-numeric:normal;font-feature-settings:normal;text-align:start;writing-mode:lr-tb;text-anchor:start"
           id="flowPara10403">apsule</flowPara></flowRoot>    </g>
  </g>
</svg>
